<svg width="1431" height="340" viewBox="0 0 1431 340" fill="none" xmlns="http://www.w3.org/2000/svg">
<g opacity="0.3" clip-path="url(#clip0_133_3814)">
<path d="M367.2 148.271C366.821 122.102 352.078 99.5411 330.315 87.4534L331.08 140.682C331.308 156.982 317.849 170.535 301.002 170.927L285.314 171.297C268.467 171.689 254.635 158.796 254.388 142.482L253.623 89.2534C232.129 102.43 218.009 125.834 218.531 152.159C219.161 184.263 241.8 211.107 272.262 219.369L318.745 512.09L380.428 502.295L333.947 209.589C354.291 196.288 367.574 173.664 367.2 148.271Z" fill="#39393B"/>
<path d="M1321.06 314.01L1327.93 313.61C1348.94 312.387 1367.46 300.328 1376.52 281.989L1387.6 259.565C1395.09 244.365 1393.62 226.274 1383.71 212.093L1373.33 197.24L1337.67 269.506L1296.25 271.914L1272.68 238.176L1308.35 165.909L1290.1 166.974C1272.69 167.992 1257.35 177.977 1249.84 193.171L1238.77 215.596C1229.7 233.935 1231.5 255.779 1243.46 272.915L1254.76 289.099C1256.65 291.8 1258.76 294.288 1261.04 296.61L1195.55 497.459L1254.93 516.819L1321.05 314.04L1321.06 314.01Z" fill="#39393B"/>
<path d="M754.616 386.751L724.933 164.163C727.792 160.281 729.198 155.963 728.619 151.62C728.266 148.973 727.187 146.552 725.587 144.378C731.475 142.302 735.901 137.453 737.016 131.577C739.215 119.975 745.557 106.82 754.783 105.59L779.457 102.3C787.94 101.168 795.647 106.561 796.683 114.328L867.833 104.84C874.137 103.999 878.628 98.6249 877.856 92.8395L867.603 15.9489C866.831 10.1634 861.089 6.15399 854.784 6.99475L783.634 16.483C784.67 24.2497 778.646 31.4738 770.162 32.6051L745.489 35.8955C735.685 37.2029 725.984 28.3171 721.324 18.8235C718.925 13.9327 713.294 11.1344 707.452 11.9136L626.251 22.7422L626.265 22.8532C556.799 32.1169 479.024 103.404 475.648 146.992C475.648 146.992 543.715 78.984 611.413 92.3638C628.044 95.6471 636.892 117.907 646.069 142.383C648.234 148.16 653.734 152.121 660.085 152.887C659.036 155.479 658.605 158.166 658.969 160.892C659.55 165.251 662.037 169.033 665.813 172.03L695.496 394.619C693.084 399.328 691.837 404.592 692.112 410.057L707.627 624.016L803.021 611.295L761.925 400.747C760.757 395.385 758.174 390.632 754.614 386.735L754.616 386.751Z" fill="#39393B"/>
<path d="M886.293 350.028L900.574 310.053C904.607 299.893 897.527 288.302 885.378 285.205L882.506 284.473L935.769 75.5514L931.91 48.4941L915.568 70.4015L862.306 279.323L859.434 278.591C847.301 275.497 835.516 282.295 834.197 293.131L827.596 335.064C825.348 349.343 821.97 363.4 817.471 377.138L808.179 403.747L870.425 419.616L875.006 391.806C877.634 377.59 881.398 363.632 886.261 350.02L886.293 350.028Z" fill="#39393B"/>
<path d="M548.267 289.773C551.572 287.66 554.662 285.258 557.503 282.583C557.503 282.583 557.537 282.567 557.537 282.551C569.22 271.548 576.491 256.21 576.559 239.212C576.694 205.615 562.765 182.964 530.105 164.46L529.849 228.118L521.913 238.992L415.302 238.564C415.226 257.337 416.041 274.131 433.446 285.363C465.297 306.551 468.42 358.118 468.267 396.08C468.254 399.518 468.426 402.189 468.768 404.189L468.13 563.04L521.144 563.253L521.815 396.231C522.02 345.236 524.853 311.331 548.267 289.757L548.267 289.773Z" fill="#39393B"/>
<path d="M415.017 239.688L464.468 239.886L461.554 235.845L461.809 172.187C431.304 189.158 416.968 209.841 415 239.704L415.017 239.688Z" fill="#39393B"/>
<path d="M174.975 222.576C159.637 190.225 120.077 176.861 86.6014 192.732C53.1262 208.604 38.4338 247.69 53.7723 280.041C64.4387 302.538 86.835 315.846 110.729 316.534L150.127 399.63L206.561 372.874L167.163 289.777C181.754 270.843 185.627 245.081 174.96 222.583L174.975 222.576ZM92.1812 282.466L76.2056 248.77L98.3982 217.614L136.566 220.152L152.542 253.847L130.349 285.004L92.1812 282.466Z" fill="#39393B"/>
<path d="M1125.83 252.028L1136.17 249.337L1149.2 220.105L1155.67 122.094L1142.19 116.241L1119.75 166.595L1123.96 168.427L1102.06 217.559C1114.93 225.432 1123.36 238.173 1125.83 252.043L1125.83 252.028Z" fill="#39393B"/>
<path d="M1015.55 359.146C1023.73 356.401 1030.39 350.571 1034.3 343.086L1042.24 327.916C1044.6 323.119 1043.53 317.58 1040.05 313.829L1049.8 302.739C1037.87 296.02 1029.51 285.238 1025.78 273.108L1006.08 297.737L998.709 294.495L968.27 321.292C967.977 332.618 961.947 342.953 951.649 351.755C921.606 377.42 900.687 412.176 886.316 445.312L929.344 458.392C943.461 428.153 963.205 397.436 990.683 373.967C1000.51 365.572 1009.16 361.317 1015.57 359.151L1015.55 359.146Z" fill="#39393B"/>
<path d="M1141.64 366.054L1127.94 327.746L1119.93 326.966L1113.36 288.715C1116.84 284.359 1119.59 279.328 1121.3 273.698C1128.79 249.05 1114.19 222.783 1088.7 215.035C1083.93 213.587 1079.13 212.896 1074.42 212.869L1079.19 156.307L1083.75 156.757L1088.39 101.761L1073.79 100.295L1032.21 189.156L1029.51 221.095L1038.01 229.21C1033.98 233.869 1030.86 239.403 1028.96 245.63C1021.47 270.277 1036.08 296.544 1061.56 304.292C1067.22 306.012 1072.93 306.628 1078.48 306.343L1082.47 324.435C1077.61 325.999 1074.01 330.337 1073.76 335.677L1073.39 352.828C1073.2 361.278 1076.21 369.632 1082.03 376.029C1086.6 381.044 1092.11 389.005 1096.66 401.133C1110.39 437.831 1112.16 477.528 1108.95 512.972L1152.23 526.129C1157.12 487.436 1156.89 441.955 1141.48 400.804C1136.72 388.074 1136.43 376.102 1141.62 366.049L1141.64 366.054ZM1070.15 276.065C1060.78 273.217 1055.41 263.564 1058.17 254.506C1060.92 245.449 1070.75 240.415 1080.12 243.263C1089.48 246.11 1094.85 255.764 1092.1 264.821C1089.34 273.878 1079.51 278.912 1070.15 276.065Z" fill="#39393B"/>
<path d="M1078.36 249.045C1072.29 247.2 1065.92 250.462 1064.13 256.337C1062.35 262.212 1065.82 268.466 1071.89 270.312C1077.96 272.157 1084.33 268.895 1086.12 263.02C1087.9 257.145 1084.43 250.89 1078.36 249.045Z" fill="#39393B"/>
</g>
<defs>
<clipPath id="clip0_133_3814">
<rect width="1442.92" height="524.729" fill="white" transform="translate(-12.6001 0.79248) rotate(0.229985)"/>
</clipPath>
</defs>
</svg>
