<svg width="162" height="48" viewBox="0 0 162 48" fill="none" xmlns="http://www.w3.org/2000/svg">
<g clip-path="url(#clip0_45_2400)">
<path fill-rule="evenodd" clip-rule="evenodd" d="M155.998 48H6.00221C2.69414 48 0 45.2948 0 42V6C0 2.69327 2.69414 0 6.00221 0H155.998C159.303 0 162 2.69327 162 6V42C162 45.2948 159.303 48 155.998 48Z" fill="black"/>
<path fill-rule="evenodd" clip-rule="evenodd" d="M155.998 0.960598C158.772 0.960598 161.043 3.22594 161.043 6V42C161.043 44.7741 158.787 47.0394 155.998 47.0394H6.00221C3.2276 47.0394 0.956658 44.7741 0.956658 42V6C0.956658 3.22594 3.2127 0.960598 6.00221 0.960598H155.998ZM155.998 0H6.00221C2.69414 0 0 2.70524 0 6V42C0 45.3067 2.69414 48 6.00221 48H155.998C159.303 48 162 45.3067 162 42V6C162 2.70524 159.303 0 155.998 0Z" fill="#A6A6A6"/>
<path d="M85.3421 15.8783C84.2603 15.8783 83.3483 15.4982 82.6271 14.7501C81.9119 14.0229 81.5125 13.0204 81.5304 11.997C81.5304 10.9047 81.8999 9.98 82.6271 9.24683C83.3453 8.4987 84.2573 8.11865 85.3391 8.11865C86.409 8.11865 87.321 8.4987 88.0541 9.24683C88.7813 10.0039 89.1508 10.9286 89.1508 11.997C89.1389 13.0922 88.7694 14.0169 88.0541 14.7471C87.3359 15.5012 86.4239 15.8783 85.3421 15.8783ZM53.1527 15.8783C52.0947 15.8783 51.1768 15.5042 50.4258 14.765C49.6807 14.0289 49.3022 13.0982 49.3022 11.9999C49.3022 10.9017 49.6807 9.97102 50.4258 9.23486C51.1619 8.49571 52.0798 8.12165 53.1527 8.12165C53.6772 8.12165 54.1868 8.22638 54.6756 8.43885C55.1554 8.64534 55.5458 8.92663 55.8349 9.27077L55.9064 9.35756L55.0988 10.1536L55.0153 10.0548C54.5594 9.51017 53.9484 9.24384 53.1408 9.24384C52.4196 9.24384 51.7907 9.5012 51.2722 10.0099C50.7506 10.5216 50.4854 11.192 50.4854 12.0029C50.4854 12.8139 50.7506 13.4842 51.2722 13.996C51.7907 14.5047 52.4196 14.762 53.1408 14.762C53.9097 14.762 54.5564 14.5047 55.06 13.996C55.3581 13.6967 55.5428 13.2778 55.6084 12.7481H53.0186V11.6289H56.72L56.7349 11.7306C56.7617 11.9192 56.7886 12.1137 56.7886 12.2932C56.7886 13.3256 56.4786 14.1605 55.8647 14.777C55.1673 15.5072 54.2554 15.8783 53.1527 15.8783ZM95.9517 15.7196H94.8103L91.3145 10.1027L91.3443 11.1142V15.7167H90.2028V8.28025H91.5052L91.541 8.33711L94.8281 13.6279L94.7983 12.6194V8.28025H95.9517V15.7196ZM76.765 15.7196H75.6087V9.39945H73.603V8.28025H78.7677V9.39945H76.762V15.7196H76.765ZM72.6612 15.7196H71.5079V8.28025H72.6612V15.7196ZM66.1793 15.7196H65.0259V9.39945H63.0202V8.28025H68.1849V9.39945H66.1793V15.7196ZM62.2901 15.7077H57.8674V8.28025H62.2901V9.39945H59.0237V11.4403H61.9712V12.5476H59.0237V14.5885H62.2901V15.7077ZM83.4735 13.981C83.9891 14.4987 84.6149 14.7591 85.3421 14.7591C86.0901 14.7591 86.7011 14.5047 87.2107 13.981C87.7173 13.4723 87.9736 12.8049 87.9736 11.9999C87.9736 11.195 87.7173 10.5246 87.2137 10.0189C86.6981 9.5012 86.0693 9.24085 85.3451 9.24085C84.597 9.24085 83.9861 9.49521 83.4795 10.0189C82.9728 10.5276 82.7165 11.195 82.7165 11.9999C82.7165 12.8049 82.9698 13.4753 83.4735 13.981Z" fill="white"/>
<path fill-rule="evenodd" clip-rule="evenodd" d="M81.4233 26.1067C78.6069 26.1067 76.3241 28.2524 76.3241 31.212C76.3241 34.1446 78.6218 36.3172 81.4233 36.3172C84.2396 36.3172 86.5225 34.1566 86.5225 31.212C86.5225 28.2524 84.2396 26.1067 81.4233 26.1067ZM81.4233 34.2943C79.8825 34.2943 78.5563 33.0135 78.5563 31.2C78.5563 29.3596 79.8855 28.1057 81.4233 28.1057C82.9641 28.1057 84.2903 29.3596 84.2903 31.2C84.2933 33.0254 82.9641 34.2943 81.4233 34.2943ZM70.298 26.1067C67.4817 26.1067 65.1988 28.2524 65.1988 31.212C65.1988 34.1446 67.4966 36.3172 70.298 36.3172C73.1144 36.3172 75.3972 34.1566 75.3972 31.212C75.3972 28.2524 73.1114 26.1067 70.298 26.1067ZM70.298 34.2943C68.7572 34.2943 67.431 33.0135 67.431 31.2C67.431 29.3596 68.7602 28.1057 70.298 28.1057C71.8388 28.1057 73.165 29.3596 73.165 31.2C73.165 33.0254 71.8388 34.2943 70.298 34.2943ZM57.0598 27.6658V29.8264H62.2245C62.0666 31.0384 61.6672 31.9332 61.0563 32.5466C60.2993 33.3067 59.131 34.1327 57.0717 34.1327C53.8977 34.1327 51.4152 31.5591 51.4152 28.3721C51.4152 25.185 53.8977 22.6115 57.0717 22.6115C58.7853 22.6115 60.034 23.2908 60.9609 24.1586L62.4868 22.6264C61.1993 21.3875 59.4857 20.4389 57.0836 20.4389C52.7295 20.4389 49.0757 24 49.0757 28.3601C49.0757 32.7322 52.7265 36.2813 57.0836 36.2813C59.435 36.2813 61.1993 35.5092 62.5941 34.0549C64.0157 32.6274 64.4657 30.6135 64.4657 28.9885C64.4657 28.4828 64.4269 28.0279 64.3465 27.6419H57.0568C57.0598 27.6389 57.0598 27.6658 57.0598 27.6658ZM111.208 29.3476C110.782 28.2015 109.494 26.0948 106.854 26.0948C104.237 26.0948 102.061 28.1626 102.061 31.2C102.061 34.0668 104.213 36.3052 107.107 36.3052C109.432 36.3052 110.785 34.8778 111.342 34.0399L109.616 32.8788C109.044 33.7317 108.248 34.2913 107.119 34.2913C105.978 34.2913 105.179 33.7706 104.648 32.7441L111.446 29.9162C111.446 29.9192 111.208 29.3476 111.208 29.3476ZM104.276 31.0534C104.222 29.0813 105.802 28.0788 106.931 28.0788C107.822 28.0788 108.564 28.5187 108.818 29.1591L104.276 31.0534ZM98.7534 36H100.986V21.0015H98.7534V36ZM95.0877 27.2409H95.0072C94.5036 26.6394 93.5469 26.0948 92.325 26.0948C89.7888 26.0948 87.4523 28.3362 87.4523 31.215C87.4523 34.0818 89.7769 36.2963 92.325 36.2963C93.532 36.2963 94.5036 35.7486 95.0072 35.1352H95.0877V35.8683C95.0877 37.8165 94.0506 38.8668 92.3787 38.8668C91.0107 38.8668 90.1614 37.8793 89.8157 37.0534L87.8755 37.8673C88.4328 39.214 89.92 40.8808 92.3757 40.8808C94.9923 40.8808 97.2096 39.3337 97.2096 35.5601V26.4H95.0996V27.2409C95.1026 27.2409 95.0877 27.2409 95.0877 27.2409ZM92.5247 34.2943C90.9839 34.2943 89.6964 33.0015 89.6964 31.215C89.6964 29.4135 90.9839 28.1087 92.5247 28.1087C94.0506 28.1087 95.2337 29.4284 95.2337 31.215C95.2486 33.0015 94.0536 34.2943 92.5247 34.2943ZM121.66 21.0015H116.322V36H118.554V30.3202H121.663C124.133 30.3202 126.562 28.5217 126.562 25.6668C126.562 22.812 124.142 21.0015 121.66 21.0015ZM121.725 28.2254H118.551V23.0783H121.725C123.397 23.0783 124.342 24.4638 124.342 25.6519C124.342 26.8279 123.385 28.2254 121.725 28.2254ZM135.509 26.0798C133.888 26.0798 132.216 26.801 131.524 28.3721L133.503 29.198C133.929 28.3721 134.71 28.0908 135.536 28.0908C136.692 28.0908 137.86 28.785 137.887 30.0239V30.1825C137.488 29.9551 136.611 29.608 135.562 29.608C133.426 29.608 131.259 30.781 131.259 32.9805C131.259 34.9945 133.011 36.2873 134.963 36.2873C136.462 36.2873 137.288 35.608 137.804 34.8209H137.884V35.982H140.036V30.2364C140.036 27.5611 138.057 26.0798 135.509 26.0798ZM135.229 34.2943C134.498 34.2943 133.476 33.9352 133.476 33.0135C133.476 31.8524 134.752 31.4125 135.84 31.4125C136.823 31.4125 137.288 31.6249 137.872 31.9182C137.711 33.2648 136.579 34.2823 135.229 34.2943ZM147.886 26.4L145.323 32.9057H145.242L142.587 26.4H140.185L144.169 35.4943L141.898 40.5486H144.223L150.353 26.4H147.886ZM127.793 36H130.025V21.0015H127.793V36Z" fill="white"/>
<path fill-rule="evenodd" clip-rule="evenodd" d="M12.4692 9.04039C12.1235 9.41446 11.9238 9.98603 11.9238 10.7342V37.2688C11.9238 38.017 12.1235 38.5885 12.4811 38.9476L12.5735 39.0284L27.3794 24.1616V23.8294L12.5616 8.95959L12.4692 9.04039Z" fill="url(#paint0_linear_45_2400)"/>
<path fill-rule="evenodd" clip-rule="evenodd" d="M32.3055 29.1322L27.3672 24.1736V23.8265L32.3055 18.8679L32.4128 18.9337L38.2541 22.2674C39.926 23.213 39.926 24.7751 38.2541 25.7327L32.4128 29.0664L32.3055 29.1322Z" fill="url(#paint1_linear_45_2400)"/>
<path fill-rule="evenodd" clip-rule="evenodd" d="M32.413 29.0663L27.3675 24L12.4692 38.9596C13.0146 39.5461 13.9296 39.612 14.9518 39.0404L32.413 29.0663Z" fill="url(#paint2_linear_45_2400)"/>
<path fill-rule="evenodd" clip-rule="evenodd" d="M32.413 18.9337L14.9518 8.97458C13.9296 8.38805 13.0116 8.46884 12.4692 9.05538L27.3675 24L32.413 18.9337Z" fill="url(#paint3_linear_45_2400)"/>
<path opacity="0.2" fill-rule="evenodd" clip-rule="evenodd" d="M32.3056 28.9587L14.9635 38.8519C13.9949 39.4115 13.1307 39.3726 12.5733 38.8639L12.481 38.9566L12.5733 39.0374C13.1307 39.5432 13.9949 39.5851 14.9635 39.0255L32.4248 29.0664L32.3056 28.9587Z" fill="black"/>
<path opacity="0.12" fill-rule="evenodd" clip-rule="evenodd" d="M38.2545 25.5591L32.291 28.9586L32.3983 29.0663L38.2396 25.7327C39.077 25.2539 39.4883 24.6254 39.4883 24C39.4376 24.5746 39.0115 25.1192 38.2545 25.5591Z" fill="black"/>
<path opacity="0.25" fill-rule="evenodd" clip-rule="evenodd" d="M14.9518 9.14819L38.2543 22.441C39.0112 22.8689 39.4374 23.4285 39.503 24.0001C39.503 23.3746 39.0917 22.7462 38.2543 22.2674L14.9518 8.97462C13.2798 8.01402 11.9238 8.81602 11.9238 10.7342V10.9078C11.9238 8.98659 13.2798 8.19956 14.9518 9.14819Z" fill="white"/>
</g>
<defs>
<linearGradient id="paint0_linear_45_2400" x1="26.0513" y1="10.4479" x2="2.32202" y2="16.7446" gradientUnits="userSpaceOnUse">
<stop stop-color="#00A0FF"/>
<stop offset="0.00657" stop-color="#00A1FF"/>
<stop offset="0.2601" stop-color="#00BEFF"/>
<stop offset="0.5122" stop-color="#00D2FF"/>
<stop offset="0.7604" stop-color="#00DFFF"/>
<stop offset="1" stop-color="#00E3FF"/>
</linearGradient>
<linearGradient id="paint1_linear_45_2400" x1="40.4344" y1="24.0001" x2="11.5171" y2="24.0001" gradientUnits="userSpaceOnUse">
<stop stop-color="#FFE000"/>
<stop offset="0.4087" stop-color="#FFBD00"/>
<stop offset="0.7754" stop-color="#FFA500"/>
<stop offset="1" stop-color="#FF9C00"/>
</linearGradient>
<linearGradient id="paint2_linear_45_2400" x1="29.6694" y1="26.7568" x2="10.5141" y2="58.8646" gradientUnits="userSpaceOnUse">
<stop stop-color="#FF3A44"/>
<stop offset="1" stop-color="#C31162"/>
</linearGradient>
<linearGradient id="paint3_linear_45_2400" x1="8.7177" y1="0.214566" x2="17.2637" y2="14.5544" gradientUnits="userSpaceOnUse">
<stop stop-color="#32A071"/>
<stop offset="0.0685" stop-color="#2DA771"/>
<stop offset="0.4762" stop-color="#15CF74"/>
<stop offset="0.8009" stop-color="#06E775"/>
<stop offset="1" stop-color="#00F076"/>
</linearGradient>
<clipPath id="clip0_45_2400">
<rect width="162" height="48" fill="white"/>
</clipPath>
</defs>
</svg>
